<?xml version="1.0" encoding="UTF-8" standalone="no"?>
<!DOCTYPE svg PUBLIC "-//W3C//DTD SVG 1.1//EN" "http://www.w3.org/Graphics/SVG/1.1/DTD/svg11.dtd">
<svg width="100%" height="100%" viewBox="0 0 7242 2017" version="1.1" xmlns="http://www.w3.org/2000/svg" xmlns:xlink="http://www.w3.org/1999/xlink" xml:space="preserve" xmlns:serif="http://www.serif.com/" style="fill-rule:evenodd;clip-rule:evenodd;stroke-linejoin:round;stroke-miterlimit:2;">
    <g transform="matrix(1,0,0,1,-1648,-579)">
        <g transform="matrix(1,0,0,1,9,-1148)">
            <path d="M3087,2624L3080,2624L3064,2635L3005,2662L2950,2681L2874,2699L2780,2713L2773,2721L2774,2727L2777,2730L2821,2736L2835,2743L2844,2745L2863,2759L2874,2771L2885,2787L2887,2795L2893,2804L2894,2812L2900,2827L2908,2871L2910,2903L2910,3485L2908,3556L2900,3603L2894,3618L2892,3631L2877,3659L2860,3677L2853,3680L2845,3687L2834,3689L2823,3695L2784,3702L2781,3706L2781,3711L2787,3717L2798,3718L2818,3715L3098,3714L3218,3716L3222,3714L3224,3710L3224,3705L3221,3701L3176,3694L3144,3678L3122,3655L3118,3645L3113,3640L3111,3631L3105,3622L3103,3608L3096,3590L3090,3529L3091,2638L3090,2628L3087,2624Z" style="fill:rgb(244,240,232);"/>
            <path d="M7361,2614L7265,2615L7242,2619L7210,2621L7172,2629L7121,2644L7072,2665L7023,2695L6994,2719L6976,2738L6945,2781L6928,2818L6926,2836L6920,2850L6918,2879L6919,2963L6926,2985L6927,2997L6933,3008L6936,3021L6945,3039L6950,3044L6952,3051L6978,3085L6995,3102L7044,3142L7053,3146L7056,3150L7070,3159L7078,3162L7083,3167L7104,3177L7111,3183L7117,3184L7140,3198L7148,3200L7158,3207L7184,3218L7192,3224L7199,3225L7207,3231L7217,3233L7225,3239L7234,3241L7245,3248L7252,3249L7263,3256L7272,3257L7280,3263L7289,3265L7299,3272L7307,3273L7317,3280L7328,3283L7332,3287L7341,3289L7352,3296L7359,3297L7367,3303L7394,3314L7398,3318L7409,3322L7414,3327L7434,3337L7479,3370L7505,3395L7518,3410L7533,3433L7544,3458L7552,3492L7552,3531L7545,3563L7535,3590L7518,3622L7503,3643L7483,3663L7450,3685L7407,3703L7394,3704L7375,3711L7329,3716L7282,3716L7230,3710L7206,3703L7194,3702L7183,3696L7170,3694L7105,3662L7099,3656L7081,3646L7076,3640L7071,3638L7052,3622L7009,3578L7007,3572L6986,3543L6984,3536L6978,3529L6977,3523L6970,3515L6969,3508L6962,3498L6961,3491L6956,3485L6953,3474L6946,3463L6945,3456L6938,3445L6936,3433L6930,3424L6928,3413L6922,3405L6920,3393L6916,3391L6906,3391L6903,3395L6904,3630L6914,3638L6925,3642L6930,3647L6948,3656L6958,3658L6969,3665L6999,3675L7008,3681L7016,3682L7027,3688L7038,3690L7049,3696L7061,3698L7075,3705L7084,3706L7098,3712L7111,3714L7123,3720L7144,3723L7161,3729L7181,3730L7203,3736L7279,3742L7310,3742L7380,3737L7404,3731L7426,3729L7443,3723L7458,3721L7469,3715L7481,3713L7502,3705L7556,3679L7582,3663L7601,3647L7638,3609L7655,3587L7678,3548L7693,3514L7696,3498L7703,3479L7704,3463L7709,3442L7709,3385L7705,3371L7703,3351L7696,3335L7694,3324L7685,3305L7682,3303L7670,3283L7641,3249L7606,3216L7554,3176L7528,3160L7519,3157L7512,3151L7506,3150L7480,3135L7470,3133L7461,3126L7454,3125L7443,3118L7436,3117L7425,3110L7419,3109L7407,3102L7400,3101L7389,3094L7380,3092L7373,3087L7363,3085L7333,3070L7325,3069L7319,3064L7291,3053L7283,3047L7275,3045L7248,3030L7242,3029L7193,3003L7191,3000L7143,2971L7107,2942L7082,2914L7067,2886L7058,2859L7056,2840L7056,2808L7059,2782L7064,2772L7066,2762L7083,2730L7107,2703L7121,2690L7145,2673L7182,2656L7198,2653L7210,2648L7251,2640L7272,2638L7323,2638L7388,2648L7402,2654L7415,2656L7452,2672L7459,2678L7492,2696L7515,2713L7544,2739L7572,2771L7589,2795L7623,2850L7635,2874L7644,2899L7649,2903L7656,2903L7660,2900L7661,2714L7654,2704L7562,2659L7520,2643L7465,2629L7424,2621L7361,2614Z" style="fill:rgb(244,240,232);"/>
            <path d="M2157,2615L2093,2625L2022,2643L1963,2666L1921,2687L1873,2717L1812,2767L1791,2787L1744,2841L1718,2884L1712,2890L1709,2899L1703,2906L1701,2914L1695,2921L1693,2930L1687,2939L1685,2949L1679,2959L1677,2971L1672,2978L1670,2991L1663,3007L1662,3019L1655,3033L1654,3051L1647,3075L1646,3104L1641,3128L1639,3157L1640,3219L1646,3256L1647,3282L1654,3306L1656,3325L1662,3338L1663,3350L1669,3362L1672,3377L1678,3387L1679,3396L1686,3407L1687,3414L1693,3422L1696,3432L1702,3440L1704,3448L1717,3467L1720,3476L1725,3480L1728,3488L1733,3493L1736,3501L1760,3534L1789,3567L1831,3607L1837,3610L1842,3616L1874,3641L1878,3642L1882,3647L1891,3651L1896,3656L1903,3658L1910,3664L1917,3666L1924,3672L1932,3674L1942,3681L1966,3690L1978,3697L1987,3699L1995,3704L2007,3706L2018,3712L2035,3715L2048,3721L2067,3723L2083,3729L2100,3730L2125,3737L2209,3743L2258,3743L2319,3737L2347,3730L2363,3729L2428,3711L2498,3680L2552,3647L2599,3608L2639,3564L2677,3508L2680,3498L2687,3489L2687,3481L2664,3461L2659,3459L2654,3460L2632,3501L2607,3536L2562,3584L2525,3614L2506,3625L2503,3629L2493,3633L2488,3638L2467,3648L2460,3654L2451,3656L2444,3662L2434,3664L2425,3670L2414,3672L2403,3678L2394,3679L2378,3686L2361,3689L2348,3694L2284,3701L2253,3701L2186,3695L2163,3688L2146,3686L2135,3680L2122,3678L2113,3672L2102,3670L2091,3663L2084,3662L2077,3656L2066,3653L2061,3648L2054,3646L2048,3640L2042,3638L2025,3624L2018,3621L2004,3608L1999,3606L1980,3589L1953,3561L1929,3530L1927,3524L1915,3507L1912,3498L1906,3491L1904,3483L1899,3478L1897,3469L1890,3459L1887,3448L1882,3442L1881,3433L1873,3420L1872,3412L1866,3402L1864,3387L1858,3375L1855,3355L1849,3341L1849,3331L1842,3308L1841,3289L1833,3246L1831,3201L1833,3098L1841,3056L1842,3038L1848,3023L1850,3003L1856,2989L1858,2971L1864,2959L1865,2946L1872,2933L1874,2921L1880,2911L1881,2903L1889,2890L1890,2883L1895,2877L1906,2851L1911,2846L1923,2822L1945,2791L1979,2754L2017,2721L2066,2691L2107,2671L2113,2671L2128,2664L2143,2662L2166,2655L2215,2648L2254,2648L2306,2655L2322,2661L2340,2664L2356,2671L2365,2672L2414,2698L2448,2721L2475,2743L2503,2771L2525,2797L2558,2848L2589,2908L2599,2934L2606,2941L2613,2940L2618,2933L2640,2880L2647,2869L2656,2844L2683,2789L2683,2784L2676,2775L2627,2735L2567,2695L2512,2665L2481,2651L2403,2628L2364,2620L2324,2615L2157,2615Z" style="fill:rgb(244,240,232);"/>
            <path d="M5858,2793L5856,2806L5864,2870L5863,2915L5867,2921L5874,2922L5881,2917L5888,2898L5895,2887L5913,2847L5936,2810L5955,2784L6001,2736L6042,2706L6078,2688L6084,2687L6099,2679L6103,2679L6114,2672L6176,2657L6218,2650L6272,2649L6312,2655L6329,2661L6347,2664L6355,2669L6367,2672L6388,2682L6392,2686L6413,2697L6432,2712L6462,2743L6485,2781L6487,2791L6493,2801L6495,2812L6501,2823L6503,2838L6509,2852L6511,2876L6517,2901L6520,3007L6517,3014L6503,3020L6461,3030L6444,3037L6424,3040L6413,3045L6396,3047L6382,3053L6367,3055L6353,3061L6330,3065L6318,3070L6306,3071L6291,3077L6274,3079L6259,3085L6241,3087L6229,3092L6209,3095L6193,3101L6179,3102L6158,3109L6142,3111L6132,3116L6115,3119L6103,3125L6088,3128L6079,3133L6067,3135L6056,3141L6043,3143L6036,3148L6022,3151L6008,3158L6000,3159L5991,3165L5984,3166L5974,3173L5964,3176L5958,3181L5949,3183L5942,3189L5933,3192L5929,3196L5905,3208L5863,3241L5825,3284L5810,3308L5794,3346L5792,3358L5786,3374L5780,3411L5779,3464L5786,3520L5801,3563L5825,3604L5865,3648L5896,3672L5920,3687L5933,3692L5937,3696L5955,3705L5964,3707L5971,3712L5983,3715L5994,3721L6007,3723L6020,3729L6037,3730L6064,3737L6088,3738L6112,3742L6149,3744L6187,3742L6208,3738L6229,3737L6249,3731L6273,3728L6288,3722L6300,3721L6314,3714L6324,3713L6345,3705L6354,3699L6364,3696L6370,3691L6379,3688L6419,3665L6426,3658L6430,3657L6454,3639L6481,3616L6504,3592L6513,3578L6518,3575L6520,3577L6519,3709L6524,3714L6717,3714L6818,3717L6824,3713L6825,3705L6822,3701L6780,3694L6772,3689L6761,3686L6746,3675L6730,3657L6721,3642L6720,3635L6713,3623L6712,3609L6706,3593L6701,3505L6702,2959L6696,2887L6689,2865L6688,2852L6682,2840L6680,2828L6674,2819L6672,2809L6666,2801L6663,2791L6640,2754L6603,2711L6574,2687L6537,2663L6500,2645L6450,2627L6417,2620L6357,2613L6285,2613L6202,2620L6161,2628L6079,2652L6008,2685L5964,2710L5937,2728L5858,2793ZM6517,3052L6519,3054L6520,3535L6518,3541L6486,3579L6450,3613L6402,3646L6395,3648L6373,3662L6367,3663L6356,3670L6345,3672L6335,3678L6321,3680L6309,3686L6298,3687L6274,3694L6247,3696L6179,3695L6145,3687L6137,3687L6121,3680L6107,3678L6098,3672L6089,3670L6084,3665L6075,3662L6069,3656L6063,3654L6042,3639L6008,3603L5985,3563L5975,3533L5968,3502L5966,3483L5965,3430L5967,3401L5976,3360L5982,3347L5985,3333L6001,3299L6023,3267L6057,3231L6074,3216L6078,3215L6083,3209L6100,3199L6106,3193L6112,3191L6118,3185L6125,3183L6131,3177L6137,3176L6145,3170L6173,3158L6179,3153L6190,3151L6199,3145L6210,3143L6218,3138L6231,3136L6243,3130L6259,3127L6272,3121L6289,3119L6298,3114L6319,3110L6330,3105L6346,3103L6361,3097L6380,3094L6388,3090L6408,3087L6421,3081L6435,3079L6446,3073L6461,3071L6472,3065L6483,3064L6517,3052Z" style="fill:rgb(244,240,232);"/>
            <path d="M4973,2636L4948,2644L4888,2671L4833,2703L4791,2735L4752,2770L4704,2825L4664,2883L4638,2930L4637,2937L4630,2948L4628,2959L4614,2992L4613,3003L4606,3019L4604,3037L4599,3049L4596,3077L4590,3102L4589,3136L4586,3156L4586,3206L4591,3266L4597,3289L4598,3304L4605,3323L4607,3340L4613,3354L4615,3367L4621,3379L4622,3387L4629,3400L4630,3407L4645,3434L4648,3444L4661,3464L4662,3469L4669,3477L4671,3484L4677,3490L4686,3507L4704,3531L4735,3566L4769,3600L4820,3641L4838,3651L4843,3656L4852,3659L4857,3664L4866,3667L4873,3673L4879,3674L4889,3681L4895,3682L4922,3697L4931,3699L4938,3704L4951,3707L4960,3712L4975,3715L4987,3721L5004,3723L5021,3729L5039,3730L5066,3737L5138,3743L5181,3743L5259,3736L5282,3730L5302,3728L5315,3723L5330,3721L5347,3714L5357,3713L5368,3707L5378,3705L5397,3697L5461,3663L5479,3650L5485,3648L5525,3616L5559,3583L5592,3543L5620,3501L5628,3483L5632,3480L5634,3476L5632,3466L5620,3461L5615,3455L5609,3454L5603,3456L5597,3470L5593,3474L5582,3495L5542,3547L5492,3598L5466,3616L5461,3622L5425,3645L5416,3648L5411,3653L5401,3656L5394,3662L5384,3664L5375,3670L5364,3672L5356,3677L5340,3680L5330,3686L5314,3688L5290,3695L5267,3696L5232,3701L5202,3701L5165,3696L5140,3695L5117,3688L5097,3686L5088,3681L5073,3679L5061,3672L5050,3670L5002,3646L4996,3640L4977,3630L4948,3608L4905,3566L4889,3547L4866,3514L4855,3492L4849,3486L4846,3476L4841,3471L4839,3462L4833,3455L4831,3444L4825,3436L4824,3426L4817,3415L4815,3401L4809,3392L4807,3376L4802,3367L4799,3348L4793,3334L4791,3312L4785,3294L4783,3258L4777,3227L4776,3106L4783,3070L4785,3038L4792,3013L4793,2993L4799,2978L4801,2958L4807,2947L4809,2931L4815,2921L4818,2907L4823,2899L4825,2887L4831,2879L4834,2866L4839,2861L4843,2848L4847,2844L4850,2835L4855,2830L4865,2810L4895,2771L4938,2727L4954,2713L4961,2710L4978,2697L5041,2664L5093,2651L5128,2647L5189,2649L5206,2654L5221,2655L5242,2663L5253,2664L5264,2671L5268,2671L5286,2680L5310,2696L5340,2721L5374,2759L5389,2781L5401,2806L5406,2812L5408,2822L5415,2833L5416,2841L5421,2848L5425,2865L5430,2873L5432,2888L5438,2902L5440,2921L5446,2938L5448,2969L5454,3002L5454,3051L5450,3054L4842,3053L4836,3060L4836,3081L4839,3089L4843,3091L5293,3092L5321,3090L5473,3090L5496,3088L5580,3087L5639,3083L5645,3081L5648,3077L5646,3045L5633,2963L5619,2912L5602,2870L5584,2833L5559,2795L5525,2755L5498,2729L5462,2701L5412,2669L5376,2651L5303,2628L5259,2619L5212,2614L5117,2613L5089,2615L5021,2625L4973,2636Z" style="fill:rgb(244,240,232);"/>
            <path d="M4276,2720L4235,2687L4204,2667L4154,2643L4109,2628L4080,2621L4036,2615L4004,2613L3944,2614L3891,2622L3844,2635L3794,2656L3743,2688L3695,2727L3649,2778L3638,2795L3630,2803L3619,2822L3615,2820L3614,2816L3616,2808L3616,2630L3612,2622L3603,2622L3595,2629L3533,2658L3469,2682L3397,2699L3308,2711L3303,2715L3302,2725L3306,2730L3359,2737L3387,2751L3405,2771L3408,2780L3414,2788L3416,2797L3421,2804L3423,2818L3429,2830L3431,2852L3437,2878L3439,2904L3439,3542L3437,3569L3431,3593L3429,3612L3425,3618L3421,3635L3416,3641L3414,3650L3405,3664L3393,3677L3382,3685L3363,3694L3339,3700L3321,3702L3319,3705L3319,3712L3322,3715L3731,3715L3742,3717L3750,3712L3751,3706L3745,3701L3707,3695L3683,3686L3676,3680L3670,3678L3657,3666L3644,3650L3640,3640L3634,3633L3632,3623L3626,3614L3625,3603L3617,3577L3615,3383L3616,2872L3635,2839L3672,2792L3703,2761L3732,2737L3758,2721L3794,2705L3813,2702L3831,2696L3872,2692L3958,2695L3998,2703L4014,2710L4028,2713L4054,2727L4060,2728L4087,2745L4127,2780L4150,2807L4167,2833L4191,2884L4199,2908L4207,2944L4214,3014L4214,3508L4207,3583L4200,3610L4189,3637L4175,3659L4165,3670L4142,3686L4131,3688L4115,3695L4078,3701L4073,3705L4074,3713L4079,3716L4145,3714L4524,3716L4528,3714L4530,3705L4524,3700L4515,3700L4485,3694L4476,3689L4461,3685L4442,3672L4425,3654L4417,3641L4408,3622L4406,3609L4402,3601L4393,3537L4393,2981L4390,2943L4375,2880L4369,2868L4366,2853L4360,2844L4358,2834L4354,2830L4350,2818L4345,2813L4341,2802L4320,2770L4294,2738L4276,2720Z" style="fill:rgb(244,240,232);"/>
            <path d="M8100,2355L8095,2357L8091,2363L8085,2389L8079,2402L8077,2416L8070,2430L8069,2439L8063,2448L8061,2458L8055,2467L8052,2479L8048,2483L8037,2509L8012,2547L7970,2590L7950,2606L7925,2622L7885,2638L7831,2651L7779,2655L7764,2654L7754,2659L7751,2670L7753,2675L7760,2680L7841,2681L7916,2679L7920,2680L7924,2685L7922,2694L7924,2718L7923,3479L7926,3525L7932,3545L7933,3556L7942,3583L7960,3620L7982,3653L8007,3680L8025,3696L8067,3720L8079,3723L8090,3729L8101,3730L8119,3737L8136,3738L8161,3743L8207,3743L8231,3738L8251,3737L8268,3731L8283,3729L8295,3723L8306,3721L8326,3713L8357,3697L8363,3691L8383,3679L8421,3648L8465,3602L8482,3581L8486,3571L8479,3564L8472,3564L8465,3570L8445,3597L8419,3623L8390,3646L8383,3649L8378,3654L8369,3657L8365,3661L8354,3664L8341,3671L8330,3672L8318,3678L8271,3685L8252,3684L8215,3678L8179,3660L8163,3647L8145,3626L8143,3619L8138,3615L8134,3604L8129,3599L8127,3589L8121,3580L8118,3562L8112,3545L8110,3487L8111,2680L8115,2676L8420,2677L8425,2670L8425,2648L8423,2644L8419,2642L8113,2642L8110,2638L8110,2364L8106,2357L8100,2355Z" style="fill:rgb(244,240,232);"/>
            <path d="M8393,1730L8388,1727L8144,1728L8135,1735L8132,1741L8120,1753L8109,1771L8096,1785L8077,1813L8071,1818L8060,1836L8048,1849L8029,1877L8023,1882L8020,1889L7975,1945L7958,1971L7920,2017L7886,2066L7871,2082L7872,2088L7875,2090L8118,2090L8125,2087L8138,2067L8150,2055L8186,2005L8207,1981L8249,1922L8255,1917L8257,1912L8287,1875L8298,1858L8303,1854L8314,1837L8367,1772L8378,1754L8391,1741L8393,1730Z" style="fill:rgb(244,240,232);"/>
            <path d="M7881,1730L7874,1727L7627,1728L7623,1730L7600,1756L7510,1878L7466,1932L7431,1982L7408,2009L7367,2066L7353,2081L7353,2088L7356,2090L7606,2089L7637,2053L7673,2002L7679,1997L7750,1906L7761,1889L7766,1885L7811,1824L7830,1802L7834,1794L7847,1780L7867,1752L7878,1742L7881,1736L7881,1730Z" style="fill:rgb(244,240,232);"/>
            <path d="M7357,1731L7349,1727L7112,1727L7102,1731L7088,1746L7071,1772L7065,1777L7039,1813L7032,1819L7014,1845L7001,1859L6990,1877L6984,1882L6967,1907L6928,1956L6918,1973L6912,1978L6888,2008L6886,2013L6881,2017L6846,2068L6832,2081L6833,2089L6839,2091L7076,2090L7084,2087L7193,1948L7227,1901L7329,1773L7344,1751L7353,1743L7357,1731Z" style="fill:rgb(244,240,232);"/>
            <path d="M6840,1729L6837,1727L6591,1728L6586,1730L6568,1751L6549,1779L6528,1803L6525,1810L6503,1835L6493,1851L6479,1866L6470,1881L6423,1939L6389,1986L6367,2011L6366,2015L6349,2037L6343,2042L6326,2068L6314,2079L6312,2087L6316,2090L6562,2090L6566,2088L6594,2050L6607,2036L6617,2020L6630,2006L6641,1989L6688,1932L6689,1928L6705,1907L6711,1902L6729,1876L6743,1861L6746,1854L6759,1839L6761,1834L6799,1790L6826,1753L6838,1741L6841,1735L6840,1729Z" style="fill:rgb(244,240,232);"/>
            <path d="M6319,1730L6315,1727L6077,1727L6064,1731L6004,1810L5992,1823L5981,1840L5966,1857L5879,1974L5863,1992L5813,2061L5794,2082L5794,2087L5803,2091L6040,2090L6045,2088L6094,2028L6161,1938L6167,1933L6209,1874L6222,1861L6234,1842L6239,1838L6294,1769L6305,1752L6314,1743L6319,1735L6319,1730Z" style="fill:rgb(244,240,232);"/>
            <path d="M3090,2174L3082,2171L3066,2173L2910,2173L2904,2177L2902,2182L2902,2363L2905,2369L2909,2371L3045,2372L3086,2371L3091,2367L3093,2363L3094,2180L3090,2174Z" style="fill:rgb(229,56,80);"/>
            <path d="M8880,1729L8875,1727L8628,1727L8619,1731L8573,1795L8568,1799L8533,1847L8528,1851L8517,1869L8497,1892L8493,1900L8480,1915L8446,1964L8432,1980L8414,2007L8409,2011L8397,2029L8392,2033L8367,2068L8356,2081L8356,2086L8362,2090L8606,2090L8610,2088L8679,1998L8690,1981L8736,1925L8819,1813L8842,1786L8868,1750L8877,1741L8881,1733L8880,1729Z" style="fill:rgb(229,56,80);"/>
        </g>
    </g>
</svg>
