<?xml version="1.0" encoding="UTF-8" standalone="no"?>
<!DOCTYPE svg PUBLIC "-//W3C//DTD SVG 1.1//EN" "http://www.w3.org/Graphics/SVG/1.1/DTD/svg11.dtd">
<svg width="100%" height="100%" viewBox="0 0 7712 2987" version="1.1" xmlns="http://www.w3.org/2000/svg" xmlns:xlink="http://www.w3.org/1999/xlink" xml:space="preserve" xmlns:serif="http://www.serif.com/" style="fill-rule:evenodd;clip-rule:evenodd;stroke-linejoin:round;stroke-miterlimit:2;">
    <g transform="matrix(1,0,0,1,-1154,-303.896743)">
        <g transform="matrix(1,0,0,1,0,-1469.103257)">
            <path d="M8864,4274L8852,4270L8800,4270L8794,4272L8791,4277L8791,4679L8787,4684L8780,4682L8380,4682L8372,4689L8371,4746L8375,4758L8380,4760L8861,4758L8866,4749L8866,4278L8864,4274Z" style="fill:rgb(244,240,232);"/>
        </g>
        <g transform="matrix(1,0,0,1,0,-1469.103257)">
            <path d="M1156,4275L1154,4282L1155,4752L1160,4759L1642,4759L1647,4756L1649,4691L1647,4686L1642,4683L1480,4684L1243,4682L1241,4684L1235,4684L1232,4681L1232,4278L1231,4275L1225,4271L1162,4270L1156,4275Z" style="fill:rgb(244,240,232);"/>
        </g>
        <g transform="matrix(1,0,0,1,0,-1469.103257)">
            <path d="M1157,2252L1162,2256L1215,2257L1227,2256L1232,2250L1232,1850L1235,1846L1244,1848L1646,1847L1654,1840L1654,1778L1647,1773L1159,1773L1154,1780L1154,2245L1157,2252Z" style="fill:rgb(244,240,232);"/>
        </g>
    </g>
</svg>
